{"title":"The Sky Crawlers.2008.BDRip.x265.DTS-ES.1080p-HDione","uid":11721751,"size":9645113051,"categoryP":"video","categoryS":"movies","magnet":"?xt=urn:btih:697be4f634ea12a861f8552d018a14b777d2aac5&amp;dn=The+Sky+Crawlers.2008.BDRip.x265.DTS-ES.1080p-HDione&amp;tr=udp%3A%2F%2Ftracker.openbittorrent.com%3A80&amp;tr=udp%3A%2F%2Fopen.demonii.com%3A1337&amp;tr=udp%3A%2F%2Ftracker.coppersurfer.tk%3A6969&amp;tr=udp%3A%2F%2Fexodus.desync.com%3A6969","seeders":1,"leechers":0,"uploader":"[KOR]Saber","files":30,"time":1424875784,"description":"\n*******************************************************************************\n                               The Sky Crawlers\n*******************************************************************************\n\n-------------------------------------------------------------------------------\n                              General Information\n-------------------------------------------------------------------------------\nType.................: Movie\nVideo Format.........: x265 (HEVC)\nVideo Bitrate........: 5 127 Kbps \nResolution...........: 1920 x 1080\nFPS..................: 23.976 fps\nRUNTIME..............: 2h 2mn\nSIZE.................: 5.96GB\nAudio................: Japanese DTS-ES 6.1ch @ 1510Kbps\nAudio2...............: Japanese Audio Commentary with Crew AC3 @ 192Kbps \nSUBTITLES............: Korean, Japanese, English, Russian\nCHAPTERS.............: Yes\nSource...............: Blu-ray\nGenre................: Animation | Adventure | Drama\nIMDb Rating..........: 6.8/10 from 4,028 users\nMovie Information....: http://www.imdb.com/title/tt1056437/\nRELEASE.DATE.........: 2015-02-25\nENCODER..............: HDione\n-------------------------------------------------------------------------------\n                                 Release Notes\n-------------------------------------------------------------------------------\n!Important Use DXVA.\nMKV include SUB and Audio Commentary with Crew\nEXTRA in Additional Videos and OST\n\nAdditional Videos List\nBD Main.mkv\nAnimation Research for The Sky Crawlers.mkv\nSky's the Limit - An Interview with Director Mamoru Oshii.mkv\nThe Sound Design and Animation of The Sky Crawlers.mkv\nThe Sky Crawlers Theatrical Trailer.mkv\n\n\n\nGeneral \nUnique ID : 233693777443522560220762584615861823969 (0xAFCFC8CD190BE9C58E7F7B73CD8F29E1) \nComplete name : The Sky Crawlers.2008.BDRip.x265.DTS-ES.1080p-HDione.mkv \nFormat : Matroska \nFormat version : Version 4 / Version 2 \nFile size : 5.96 GiB \nDuration : 2h 2mn \nOverall bit rate : 6 967 Kbps \nEncoded date : UTC 2015-02-25 11:54:58 \nWriting application : mkvmerge v7.6.0 ('Garden of Dreams') 64bit built on Feb 8 2015 13:04:34 \nWriting library : libebml v1.3.1 + libmatroska v1.4.2 \n_STATISTICS_WRITING_APP : mkvmerge v7.6.0 ('Garden of Dreams') 64bit built on Feb 8 2015 13:04:34 \n_STATISTICS_WRITING_DATE_UTC : 2015-02-25 11:54:58 \n_STATISTICS_TAGS : BPS DURATION NUMBER_OF_FRAMES NUMBER_OF_BYTES \nDURATION : 02:00:47.490000000 \nNUMBER_OF_FRAMES : 960 \nNUMBER_OF_BYTES : 83079 \n\nVideo \nID : 1 \nFormat : HEVC \nFormat/Info : High Efficiency Video Coding \nCodec ID : V_MPEGH/ISO/HEVC \nDuration : 2h 2mn \nBit rate : 5 127 Kbps \nWidth : 1 920 pixels \nHeight : 1 080 pixels \nDisplay aspect ratio : 16:9 \nFrame rate mode : Constant \nFrame rate : 23.976 fps \nBits/(Pixel*Frame) : 0.103 \nStream size : 4.38 GiB (74%) \nTitle : The Sky Crawlers by.HDione \nDefault : Yes \nForced : No \n\nAudio #1 \nID : 2 \nFormat : DTS \nFormat/Info : Digital Theater Systems \nFormat profile : ES \nMode : 16 \nFormat settings, Endianness : Big \nCodec ID : A_DTS \nDuration : 2h 2mn \nBit rate mode : Constant \nBit rate : 1 509 Kbps \nChannel(s) : 7 channels / 6 channels \nChannel positions : Front: L C R, Side: L R, Back: C, LFE / Front: L C R, Side: L R, LFE \nSampling rate : 48.0 KHz \nBit depth : 24 bits \nCompression mode : Lossy \nStream size : 1.29 GiB (22%) \nLanguage : Japanese \nDefault : Yes \nForced : No \n\nAudio #2 \nID : 3 \nFormat : AC-3 \nFormat/Info : Audio Coding 3 \nMode extension : CM (complete main) \nFormat settings, Endianness : Big \nCodec ID : A_AC3 \nDuration : 2h 2mn \nBit rate mode : Constant \nBit rate : 192 Kbps \nChannel(s) : 2 channels \nChannel positions : Front: L R \nSampling rate : 48.0 KHz \nBit depth : 16 bits \nCompression mode : Lossy \nStream size : 168 MiB (3%) \nTitle : Audio Commentary with Crew \nLanguage : Japanese \nDefault : No \nForced : No \n\nText #1 \nID : 4 \nFormat : PGS \nMuxing mode : zlib \nCodec ID : S_HDMV/PGS \nCodec ID/Info : The same subtitle format used on BDs/HD-DVDs \nLanguage : Korean \nDefault : Yes \nForced : No \n\nText #2 \nID : 5 \nFormat : PGS \nMuxing mode : zlib \nCodec ID : S_HDMV/PGS \nCodec ID/Info : The same subtitle format used on BDs/HD-DVDs \nTitle : Audio Commentary with Crew \nLanguage : Korean \nDefault : No \nForced : No \n\nText #3 \nID : 6 \nFormat : UTF-8 \nCodec ID : S_TEXT/UTF8 \nCodec ID/Info : UTF-8 Plain Text \nLanguage : Japanese \nDefault : No \nForced : No \n\nText #4 \nID : 7 \nFormat : ASS \nCodec ID : S_TEXT/ASS \nCodec ID/Info : Advanced Sub Station Alpha \nCompression mode : Lossless \nLanguage : English \nDefault : No \nForced : No \n\nText #5 \nID : 8 \nFormat : ASS \nCodec ID : S_TEXT/ASS \nCodec ID/Info : Advanced Sub Station Alpha \nCompression mode : Lossless \nLanguage : Russian \nDefault : No \nForced : No \n\nMenu \n00:00:00.000 : en:00:00:00.000 \n00:05:15.315 : en:00:05:15.315 \n00:08:49.571 : en:00:08:49.571 \n00:17:05.983 : en:00:17:05.983 \n00:19:51.190 : en:00:19:51.190 \n00:28:06.435 : en:00:28:06.435 \n00:35:47.145 : en:00:35:47.145 \n00:41:13.805 : en:00:41:13.805 \n00:47:45.071 : en:00:47:45.071 \n00:50:08.923 : en:00:50:08.923 \n00:53:41.218 : en:00:53:41.218 \n01:00:52.440 : en:01:00:52.440 \n01:07:34.509 : en:01:07:34.509 \n01:10:54.125 : en:01:10:54.125 \n01:12:45.570 : en:01:12:45.570 \n01:21:02.191 : en:01:21:02.191 \n01:25:55.150 : en:01:25:55.150 \n01:31:27.691 : en:01:31:27.691 \n01:36:24.237 : en:01:36:24.237 \n01:39:25.668 : en:01:39:25.668 \n01:44:45.279 : en:01:44:45.279 \n01:48:12.778 : en:01:48:12.778 \n01:53:41.940 : en:01:53:41.940 \n01:56:10.964 : en:01:56:10.964","torrent":{"xt":"urn:btih:697be4f634ea12a861f8552d018a14b777d2aac5","amp;dn":"The+Sky+Crawlers.2008.BDRip.x265.DTS-ES.1080p-HDione","amp;tr":["udp%3A%2F%2Ftracker.openbittorrent.com%3A80","udp%3A%2F%2Fopen.demonii.com%3A1337","udp%3A%2F%2Ftracker.coppersurfer.tk%3A6969","udp%3A%2F%2Fexodus.desync.com%3A6969"],"infoHash":"697be4f634ea12a861f8552d018a14b777d2aac5","infoHashBuffer":{"type":"Buffer","data":[105,123,228,246,52,234,18,168,97,248,85,45,1,138,20,183,119,210,170,197]},"announce":[],"urlList":[]}}